<svg xmlns="http://www.w3.org/2000/svg" viewBox="0 0 155.91 56.69" width="1760" height="640"><path d="M0 0h155.91v56.69H0z"/><path fill="#bf0c2c" d="M8.5 43.94v4.25h138.9v-4.25H8.5z"/><path d="M57.36 28.49c0 4.81-2.49 7.46-7 7.46s-6.93-2.58-6.93-7.46V10.18h-4.15v18.54c0 6.93 4.14 11.07 11.08 11.07 6.67 0 11.15-4.45 11.15-11.07V10.18h-4.15v18.31zM16.9 9.87a58.25 58.25 0 0 0-7.38.46L9 10.4v28.54l.49.05a72 72 0 0 0 7.64.46c11.28 0 16.32-7.56 16.32-15.06 0-7-5.19-14.52-16.59-14.52zM29.07 24.4c0 7.09-4.31 11.33-11.52 11.33a30.11 30.11 0 0 1-4.36-.22V13.79a31.89 31.89 0 0 1 4-.23c7.34 0 11.9 4.15 11.9 10.83zm47.5-14.53a58.25 58.25 0 0 0-7.38.46l-.48.06v28.55l.49.05a72 72 0 0 0 7.64.46c11.27 0 16.32-7.56 16.32-15.06 0-7-5.19-14.52-16.59-14.52zM88.74 24.4c0 7.09-4.31 11.33-11.52 11.33a30.12 30.12 0 0 1-4.36-.22V13.79a31.9 31.9 0 0 1 4-.23c7.34 0 11.9 4.15 11.9 10.83zm10.8 14.95h17.52v-3.84h-13.37v-9.03h12.03v-3.84h-12.03v-8.61h13.37v-3.84H99.54v29.16zm43.15-9.38L124.78 9.76h-.65v29.58h4.17v-19.8l17.91 20.21h.65V10.18h-4.17v19.79z" fill="#fff"/></svg>